# xmcd
#
# Track frame offsets:
#	150
#	16585
#	34923
#	56328
#	72004
#	86507
#	101937
#	119436
#	137906
#	161537
#	177365
#	192842
#	208240
#	226204
#	244002
#	259675
#
# Disc length: 3676 seconds
# Revision: 0
# Processed by: cddbd v1.5.2PL0 Copyright (c) Steve Scherf et al.
# Submitted via: dBpowerAMP V12.0
#
DISCID=d80e5a10
DTITLE=Various Artist - New Country Music Vol. 1
DYEAR=2016
DGENRE=Country Sampler
TTITLE0=The Bellamy Brothers - Dinosaur Wine
TTITLE1=Vince Gill - What You Need From Me
TTITLE2=Mark Selby - Forty Days, Forty Nights
TTITLE3=Hot 'n' Nasty - Turn Around
TTITLE4=Brandy Zdan - Mourning Dove
TTITLE5=Daryle Singletary - There's Still a Little Country Left
TTITLE6=Buffalo C. Wayne - Her Daddy's Got a Gun
TTITLE7=Flynnville Train - Friends Of Sinners
TTITLE8=Steve Fister - I Just Wanna Scream
TTITLE9=Scooter Lee - I'm Gonna Love You Forever
TTITLE10=Cody McCarver - Red Flag
TTITLE11=Miko Marks - Freeway Bound
TTITLE12=The Bacon Brothers - Grace
TTITLE13=Get the Cat - Two Steps Forward
TTITLE14=Dr. Will - She's Gone
TTITLE15=The Wilders - Hey Little Darlin'
EXTD=
EXTT0=
EXTT1=
EXTT2=
EXTT3=
EXTT4=
EXTT5=
EXTT6=
EXTT7=
EXTT8=
EXTT9=
EXTT10=
EXTT11=
EXTT12=
EXTT13=
EXTT14=
EXTT15=
PLAYORDER=
